# xmcd
#
# Track frame offsets:
#	150
#	16983
#	36665
#	56138
#	68039
#	79682
#	97646
#	110522
#	125607
#	138609
#	151130
#	170795
#	185503
#	202030
#	221742
#
# Disc length: 3201 seconds
#
# Revision: 1
# Processed by: cddbd v1.5.2PL0 Copyright (c) Steve Scherf et al.
# Submitted via: audiograbber 1.83.01
#
DISCID=db0c7f0f
DTITLE=Ronan Drury - Country and More
DYEAR=1900
DGENRE=Country
TTITLE0=City of New Orleans
TTITLE1=A Rainy Night in Soho
TTITLE2=Rock and Roll Years
TTITLE3=Speed of the Sound of Lonliness
TTITLE4=Everybody's making it but me
TTITLE5=Leaving on a Jet Plane
TTITLE6=Island in the Sun
TTITLE7=Both Sides Now
TTITLE8=King of the Road
TTITLE9=Thank God I'm a Country Boy
TTITLE10=Banks of the Ohio
TTITLE11=Country Roads
TTITLE12=Always look on the Bright Side of Life
TTITLE13=The Boxer
TTITLE14=I don't like Mondays
EXTD=
EXTT0=
EXTT1=
EXTT2=
EXTT3=
EXTT4=
EXTT5=
EXTT6=
EXTT7=
EXTT8=
EXTT9=
EXTT10=
EXTT11=
EXTT12=
EXTT13=
EXTT14=
PLAYORDER=
